# xmcd CD database file
#
# Track frame offsets:
#	150
#	14262
#	28797
#	44822
#	60370
#	76217
#	89247
#	104522
#	117730
#	135782
#	151502
#
# Disc length: 2264 seconds
#
# Revision: 1
# Processed by: cddbd v1.4PL0 Copyright (c) Steve Scherf et al.
# Submitted via: CDValet v3.40 - Copyright (c) 1996 - 1998 Greg Leichner
#
DISCID=8908d60b
DTITLE=3 Twins - Trinkets
DYEAR=1900
DGENRE=
TTITLE0=This Time
TTITLE1=I'm Trying
TTITLE2=Julianne
TTITLE3=Date With An Angel
TTITLE4=Blue Mountain Girl
TTITLE5=If Wishin' Made It So
TTITLE6=The Rain Song
TTITLE7=Since Then
TTITLE8=Look At The Day
TTITLE9=Three Days
TTITLE10=Wyoming Bound
EXTD=
EXTT0=
EXTT1=
EXTT2=
EXTT3=
EXTT4=
EXTT5=
EXTT6=
EXTT7=
EXTT8=
EXTT9=
EXTT10=
PLAYORDER=
